<svg width="27" height="29" viewBox="0 0 27 29" fill="none" xmlns="http://www.w3.org/2000/svg">
<path d="M8.47142 1.84992L2.09004 8.14252C1.44675 8.77685 1.30859 9.76368 1.75294 10.5503L10.2061 25.5147C10.4681 25.9784 10.9042 26.3185 11.4177 26.4595L15.8746 27.6838C16.5836 27.8786 17.3423 27.6686 17.8503 27.137L25.2086 19.4368C25.6989 18.9238 25.8806 18.1895 25.6861 17.5071L22.4472 6.1385C22.264 5.49516 21.7712 4.98606 21.1342 4.78191L10.4861 1.36943C9.77742 1.14232 9.00128 1.32743 8.47142 1.84992Z" fill="black"/>
<path d="M10.029 17.2308L6.30488 11.0093C6.10592 10.6769 6.04606 10.2929 6.26571 9.97385C6.59809 9.49098 7.34606 8.63321 9.02899 7.23077M11.4177 26.4595L15.8746 27.6838C16.5836 27.8786 17.3423 27.6686 17.8503 27.137L25.2086 19.4368C25.6989 18.9238 25.8806 18.1895 25.6861 17.5071L22.4472 6.1385C22.264 5.49516 21.7712 4.98606 21.1342 4.78191L10.4861 1.36943C9.77742 1.14232 9.00128 1.32743 8.47142 1.84992L2.09004 8.14252C1.44675 8.77685 1.30859 9.76368 1.75294 10.5503L10.2061 25.5147C10.4681 25.9784 10.9042 26.3185 11.4177 26.4595Z" stroke="url(#paint0_linear_7_99)" stroke-width="2"/>
<defs>
<linearGradient id="paint0_linear_7_99" x1="13.5" y1="1" x2="13.5" y2="28" gradientUnits="userSpaceOnUse">
<stop stop-color="#797EFF"/>
<stop offset="1" stop-color="#3239FF"/>
</linearGradient>
</defs>
</svg>
